<svg xmlns="http://www.w3.org/2000/svg" viewBox="0 0 512 512">
  <path fill="#252B33" d="M256 28c66 51 137 72 213 91v151c0 105-74 178-213 214C117 448 43 375 43 270V119c76-19 147-40 213-91Z"/>
  <path fill="#5B9BCB" d="M147 151h218c17 0 30 13 30 30v154l-59 59H147c-17 0-30-13-30-30V181c0-17 13-30 30-30Z"/>
  <path fill="#5B9BCB" d="M171 124h22v43h-22zM237 124h22v43h-22zM303 124h22v43h-22zM369 124h22v43h-22z"/>
  <path fill="#252B33" d="M171 204h170a8 8 0 0 1 0 16H171a8 8 0 0 1 0-16ZM171 252h170a8 8 0 0 1 0 16H171a8 8 0 0 1 0-16ZM171 300h170a8 8 0 0 1 0 16H171a8 8 0 0 1 0-16ZM171 348h105a8 8 0 0 1 0 16H171a8 8 0 0 1 0-16Z"/>
  <path fill="#252B33" d="M336 394v-49c0-17 13-30 30-30h49v18h-43c-10 0-18 8-18 18v43h-18Z"/>
  <path fill="#252B33" d="m336 394 79-79v25l-54 54h-25Z"/>
</svg>
